<svg id="Layer_1" data-name="Layer 1" xmlns="http://www.w3.org/2000/svg" viewBox="0 0 1957.71 448.38"><defs><style>.cls-1{fill:#fd5c1f;}</style></defs><path class="cls-1" d="M611.23,346.68c0,44.28-36.21,80.17-80.87,80.17S449.49,391,449.49,346.68s36.2-80.15,80.87-80.15S611.23,302.42,611.23,346.68Z"/><polygon class="cls-1" points="605.75 21.54 605.75 122.86 466.42 122.86 238.44 426.85 35.78 426.85 263.77 122.86 110.37 122.86 110.37 21.54 605.75 21.54"/><polygon points="785.77 180.63 836.64 180.63 836.64 73.87 881.61 73.87 881.61 36.54 740.57 36.54 740.57 73.87 785.77 73.87 785.77 180.63"/><polygon points="1024.16 143.3 952.76 143.3 952.76 126.27 1008.22 126.27 1008.22 91.78 952.76 91.78 952.76 73.87 1021.54 73.87 1021.54 36.54 901.89 36.54 901.89 180.63 1024.16 180.63 1024.16 143.3"/><path d="M1097.88,153.13h38.9l6.53,27.5h52L1148.33,36.54H1087.2l-46.72,144.09h50.65Zm19.23-79.69h.65l5.9,24.45,5.6,23.58h-23.61l5.78-23.58Z"/><polygon points="1354.82 82.17 1355.48 82.17 1354.82 130.64 1354.82 180.63 1399.15 180.63 1399.15 36.54 1331.47 36.54 1314.88 100.51 1308.54 127.36 1308.1 127.36 1301.78 100.51 1285.18 36.54 1214.01 36.54 1214.01 180.63 1258.54 180.63 1258.54 130.64 1257.89 82.17 1258.76 82.17 1286.27 180.63 1326.88 180.63 1354.82 82.17"/><path d="M780.75,265.63,734,409.73h50.66l6.75-27.51h38.89l6.53,27.51h52l-46.94-144.1Zm18.44,84.93L805,327l5.68-24.45h.65l5.9,24.45,5.6,23.58Z"/><path d="M1034.27,347.29q14.74-12,14.74-35.81,0-20.73-15.06-33.29t-43.23-12.56H912.56v144.1h49.78V361.92h14l25.47,47.81h55.24l-35.28-55.32A46.1,46.1,0,0,0,1034.27,347.29Zm-71.93-45.41H982q8.07,0,12.11,3.05t4,10.26q0,7.43-4,10.37T982,328.51H962.34Z"/><polygon points="1069.93 302.96 1115.13 302.96 1115.13 409.73 1166 409.73 1166 302.96 1210.97 302.96 1210.97 265.63 1069.93 265.63 1069.93 302.96"/><rect x="1231.26" y="265.63" width="50.87" height="144.1"/><path d="M1368,301.66a37.76,37.76,0,0,1,9.07-.88,66.7,66.7,0,0,1,24.34,4.37,101.42,101.42,0,0,1,21.51,11.57L1443.42,284a86.56,86.56,0,0,0-29.14-15.39q-16.48-5.13-37.22-5.13-21.61,0-36.79,6.22T1317.13,287q-8,11.13-8,26,0,14.4,6.55,22.81a41,41,0,0,0,17,12.77,132.91,132.91,0,0,0,22.06,7l21.83,4.81q6.56,1.53,9.06,3.05a5.42,5.42,0,0,1,1.31,8,8.47,8.47,0,0,1-4.26,2.29,31,31,0,0,1-8.29.88,74.16,74.16,0,0,1-17.91-2.4,110.14,110.14,0,0,1-18.56-6.45,72,72,0,0,1-15.28-9.06l-20.08,33.41a80.63,80.63,0,0,0,20.3,11.9,124.17,124.17,0,0,0,25.55,7.42,153.17,153.17,0,0,0,27.51,2.51q18.33,0,32.85-5.46a50.16,50.16,0,0,0,23-16.7q8.52-11.25,8.52-28.71t-11.24-27.29q-11.25-9.83-33.3-14.85L1376,314.32q-6.12-1.53-10.16-2.84t-4-3.93a5,5,0,0,1,1.42-3.49A9.86,9.86,0,0,1,1368,301.66Z"/><path d="M1492.78,265.63l-46.72,144.1h50.65l6.75-27.51h38.9l6.53,27.51h52l-46.94-144.1Zm18.45,84.93L1517,327l5.68-24.45h.66l5.89,24.45,5.6,23.58Z"/><polygon points="1716.53 319.12 1717.4 348.82 1716.97 348.82 1709.11 331.35 1674.62 265.63 1619.6 265.63 1619.6 409.73 1663.7 409.73 1663.7 356.24 1662.82 326.55 1663.26 326.55 1671.12 344.23 1705.62 409.73 1760.63 409.73 1760.63 265.63 1716.53 265.63 1716.53 319.12"/><path d="M1907.63,333.75q-11.25-9.83-33.29-14.85l-19.87-4.58q-6.1-1.53-10.15-2.84c-2.7-.87-4-2.18-4-3.93a5,5,0,0,1,1.42-3.49,9.81,9.81,0,0,1,4.8-2.4,37.73,37.73,0,0,1,9.06-.88,66.71,66.71,0,0,1,24.35,4.37,101.11,101.11,0,0,1,21.5,11.57L1921.93,284a86.75,86.75,0,0,0-29.14-15.39q-16.49-5.13-37.23-5.13-21.61,0-36.79,6.22T1795.63,287a43.48,43.48,0,0,0-8,26q0,14.4,6.55,22.81a41.14,41.14,0,0,0,17,12.77,133.1,133.1,0,0,0,22,7l21.83,4.81q6.56,1.53,9.06,3.05a5,5,0,0,1,2.52,4.59,5.1,5.1,0,0,1-1.2,3.38,8.51,8.51,0,0,1-4.26,2.29,31,31,0,0,1-8.3.88,74.08,74.08,0,0,1-17.9-2.4,109.83,109.83,0,0,1-18.56-6.45,71.72,71.72,0,0,1-15.28-9.06l-20.08,33.41a80.63,80.63,0,0,0,20.3,11.9A124.26,124.26,0,0,0,1827,409.4a153.26,153.26,0,0,0,27.51,2.51q18.35,0,32.86-5.46a50.16,50.16,0,0,0,23-16.7q8.52-11.25,8.51-28.71T1907.63,333.75Z"/></svg>